<?xml version="1.0" encoding="utf-8" standalone="no"?>
<!DOCTYPE svg PUBLIC "-//W3C//DTD SVG 1.1//EN"
  "http://www.w3.org/Graphics/SVG/1.1/DTD/svg11.dtd">
<svg xmlns:xlink="http://www.w3.org/1999/xlink" width="163.74pt" height="38.64pt" viewBox="0 0 163.74 38.64" xmlns="http://www.w3.org/2000/svg" version="1.1">
 <metadata>
  <rdf:RDF xmlns:dc="http://purl.org/dc/elements/1.1/" xmlns:cc="http://creativecommons.org/ns#" xmlns:rdf="http://www.w3.org/1999/02/22-rdf-syntax-ns#">
   <cc:Work>
    <dc:type rdf:resource="http://purl.org/dc/dcmitype/StillImage"/>
    <dc:date>2026-07-21T17:18:46.417101</dc:date>
    <dc:format>image/svg+xml</dc:format>
    <dc:creator>
     <cc:Agent>
      <dc:title>Matplotlib v3.11.0, https://matplotlib.org/</dc:title>
     </cc:Agent>
    </dc:creator>
   </cc:Work>
  </rdf:RDF>
 </metadata>
 <defs>
  <style type="text/css">*{stroke-linejoin: round; stroke-linecap: butt}</style>
 </defs>
 <g id="figure_1">
  <g id="patch_1">
   <path d="M 0 38.64 
L 163.74 38.64 
L 163.74 -0 
L 0 -0 
L 0 38.64 
z
" style="fill: none"/>
  </g>
  <g id="text_1">
   <!-- $s\,t + b \;=\; D$ -->
   <g style="fill: #3a2c1a" transform="translate(4.32 27.112969) scale(0.3 -0.3)">
    <defs>
     <path id="Cmmi10-58" d="M 556 391 
Q 728 97 1247 97 
Q 1472 97 1675 173 
Q 1878 250 2011 403 
Q 2144 556 2144 775 
Q 2144 941 2025 1047 
Q 1906 1153 1734 1191 
L 1388 1259 
Q 1150 1319 997 1481 
Q 844 1644 844 1875 
Q 844 2159 998 2378 
Q 1153 2597 1406 2712 
Q 1659 2828 1931 2828 
Q 2222 2828 2451 2689 
Q 2681 2550 2681 2278 
Q 2681 2131 2598 2018 
Q 2516 1906 2369 1906 
Q 2284 1906 2223 1961 
Q 2163 2016 2163 2100 
Q 2163 2175 2205 2245 
Q 2247 2316 2317 2358 
Q 2388 2400 2463 2400 
Q 2406 2538 2251 2600 
Q 2097 2663 1919 2663 
Q 1756 2663 1593 2597 
Q 1431 2531 1332 2404 
Q 1234 2278 1234 2106 
Q 1234 1991 1315 1903 
Q 1397 1816 1516 1778 
L 1888 1703 
Q 2066 1666 2214 1570 
Q 2363 1475 2448 1329 
Q 2534 1184 2534 997 
Q 2534 759 2401 528 
Q 2269 297 2075 159 
Q 1734 -72 1241 -72 
Q 900 -72 615 84 
Q 331 241 331 550 
Q 331 725 432 854 
Q 534 984 709 984 
Q 813 984 883 921 
Q 953 859 953 756 
Q 953 609 843 500 
Q 734 391 588 391 
L 556 391 
z
" transform="scale(0.015625)"/>
     <path id="Cmmi10-30" d="M 397 519 
Q 397 613 416 697 
L 878 2534 
L 206 2534 
Q 141 2534 141 2619 
Q 166 2759 225 2759 
L 934 2759 
L 1191 3803 
Q 1216 3888 1291 3947 
Q 1366 4006 1459 4006 
Q 1541 4006 1595 3957 
Q 1650 3909 1650 3828 
Q 1650 3809 1648 3798 
Q 1647 3788 1644 3775 
L 1388 2759 
L 2047 2759 
Q 2113 2759 2113 2675 
Q 2109 2659 2100 2621 
Q 2091 2584 2075 2559 
Q 2059 2534 2028 2534 
L 1331 2534 
L 872 684 
Q 825 503 825 372 
Q 825 97 1013 97 
Q 1294 97 1511 361 
Q 1728 625 1844 941 
Q 1869 978 1894 978 
L 1972 978 
Q 1997 978 2012 961 
Q 2028 944 2028 922 
Q 2028 909 2022 903 
Q 1881 516 1612 222 
Q 1344 -72 997 -72 
Q 744 -72 570 93 
Q 397 259 397 519 
z
" transform="scale(0.015625)"/>
     <path id="Cmr10-4c" d="M 481 1472 
Q 428 1472 393 1512 
Q 359 1553 359 1600 
Q 359 1647 393 1687 
Q 428 1728 481 1728 
L 2363 1728 
L 2363 3616 
Q 2363 3666 2400 3698 
Q 2438 3731 2491 3731 
Q 2538 3731 2578 3698 
Q 2619 3666 2619 3616 
L 2619 1728 
L 4500 1728 
Q 4547 1728 4581 1687 
Q 4616 1647 4616 1600 
Q 4616 1553 4581 1512 
Q 4547 1472 4500 1472 
L 2619 1472 
L 2619 -416 
Q 2619 -466 2578 -498 
Q 2538 -531 2491 -531 
Q 2438 -531 2400 -498 
Q 2363 -466 2363 -416 
L 2363 1472 
L 481 1472 
z
" transform="scale(0.015625)"/>
     <path id="Cmmi10-4b" d="M 1106 -72 
Q 719 -72 503 231 
Q 288 534 288 941 
Q 288 1000 317 1173 
Q 347 1347 347 1388 
L 966 3872 
Q 991 3981 997 4044 
Q 997 4147 581 4147 
Q 519 4147 519 4231 
Q 522 4247 533 4287 
Q 544 4328 561 4350 
Q 578 4372 609 4372 
L 1472 4441 
Q 1550 4441 1550 4359 
L 1075 2472 
Q 1438 2828 1806 2828 
Q 2078 2828 2273 2684 
Q 2469 2541 2566 2306 
Q 2663 2072 2663 1806 
Q 2663 1497 2542 1167 
Q 2422 838 2209 555 
Q 1997 272 1712 100 
Q 1428 -72 1106 -72 
z
M 1119 97 
Q 1338 97 1528 280 
Q 1719 463 1838 691 
Q 1966 947 2077 1386 
Q 2188 1825 2188 2088 
Q 2188 2316 2092 2489 
Q 1997 2663 1791 2663 
Q 1559 2663 1348 2492 
Q 1138 2322 978 2088 
L 800 1363 
Q 697 959 691 716 
Q 691 475 795 286 
Q 900 97 1119 97 
z
" transform="scale(0.015625)"/>
     <path id="Cmr10-29" d="M 481 850 
Q 428 850 393 890 
Q 359 931 359 978 
Q 359 1031 393 1068 
Q 428 1106 481 1106 
L 4500 1106 
Q 4547 1106 4581 1068 
Q 4616 1031 4616 978 
Q 4616 931 4581 890 
Q 4547 850 4500 850 
L 481 850 
z
M 481 2094 
Q 428 2094 393 2131 
Q 359 2169 359 2222 
Q 359 2269 393 2309 
Q 428 2350 481 2350 
L 4500 2350 
Q 4547 2350 4581 2309 
Q 4616 2269 4616 2222 
Q 4616 2169 4581 2131 
Q 4547 2094 4500 2094 
L 481 2094 
z
" transform="scale(0.015625)"/>
     <path id="Cmmi10-3b" d="M 313 0 
Q 250 0 250 84 
Q 253 100 262 139 
Q 272 178 289 201 
Q 306 225 331 225 
Q 722 225 878 269 
Q 959 297 997 441 
L 1875 3956 
Q 1888 4019 1888 4044 
Q 1888 4113 1813 4122 
Q 1691 4147 1350 4147 
Q 1288 4147 1288 4231 
Q 1291 4247 1300 4286 
Q 1309 4325 1326 4348 
Q 1344 4372 1369 4372 
L 3669 4372 
Q 4116 4372 4450 4155 
Q 4784 3938 4962 3570 
Q 5141 3203 5141 2759 
Q 5141 2269 4937 1778 
Q 4734 1288 4368 881 
Q 4003 475 3534 237 
Q 3066 0 2572 0 
L 313 0 
z
M 1509 275 
Q 1509 225 1728 225 
L 2472 225 
Q 2828 225 3159 372 
Q 3491 519 3750 775 
Q 3991 1016 4175 1406 
Q 4359 1797 4461 2222 
Q 4563 2647 4563 3003 
Q 4563 3263 4486 3472 
Q 4409 3681 4270 3831 
Q 4131 3981 3922 4064 
Q 3713 4147 3450 4147 
L 2747 4147 
Q 2572 4147 2515 4117 
Q 2459 4088 2413 3928 
L 1538 416 
Q 1509 338 1509 275 
z
" transform="scale(0.015625)"/>
    </defs>
    <use xlink:href="#Cmmi10-58" transform="translate(0 0.609375)"/>
    <use xlink:href="#Cmmi10-30" transform="translate(63.444391 0.609375)"/>
    <use xlink:href="#Cmr10-4c" transform="translate(119.528433 0.609375)"/>
    <use xlink:href="#Cmmi10-4b" transform="translate(217.214037 0.609375)"/>
    <use xlink:href="#Cmr10-29" transform="translate(307.912096 0.609375)"/>
    <use xlink:href="#Cmmi10-3b" transform="translate(433.375779 0.609375)"/>
   </g>
  </g>
 </g>
</svg>
