<?xml version="1.0" encoding="utf-8" standalone="no"?>
<!DOCTYPE svg PUBLIC "-//W3C//DTD SVG 1.1//EN"
  "http://www.w3.org/Graphics/SVG/1.1/DTD/svg11.dtd">
<svg xmlns:xlink="http://www.w3.org/1999/xlink" width="203.64pt" height="47.04pt" viewBox="0 0 203.64 47.04" xmlns="http://www.w3.org/2000/svg" version="1.1">
 <metadata>
  <rdf:RDF xmlns:dc="http://purl.org/dc/elements/1.1/" xmlns:cc="http://creativecommons.org/ns#" xmlns:rdf="http://www.w3.org/1999/02/22-rdf-syntax-ns#">
   <cc:Work>
    <dc:type rdf:resource="http://purl.org/dc/dcmitype/StillImage"/>
    <dc:date>2026-07-21T17:18:46.499249</dc:date>
    <dc:format>image/svg+xml</dc:format>
    <dc:creator>
     <cc:Agent>
      <dc:title>Matplotlib v3.11.0, https://matplotlib.org/</dc:title>
     </cc:Agent>
    </dc:creator>
   </cc:Work>
  </rdf:RDF>
 </metadata>
 <defs>
  <style type="text/css">*{stroke-linejoin: round; stroke-linecap: butt}</style>
 </defs>
 <g id="figure_1">
  <g id="patch_1">
   <path d="M 0 47.04 
L 203.64 47.04 
L 203.64 0 
L 0 0 
L 0 47.04 
z
" style="fill: none"/>
  </g>
  <g id="text_1">
   <!-- $t \;=\; -\,\tau \ln\!\left(\frac{V}{V_0}\right)$ -->
   <g style="fill: #3a2c1a" transform="translate(4.32 29.52) scale(0.3 -0.3)">
    <defs>
     <path id="Cmmi10-30" d="M 397 519 
Q 397 613 416 697 
L 878 2534 
L 206 2534 
Q 141 2534 141 2619 
Q 166 2759 225 2759 
L 934 2759 
L 1191 3803 
Q 1216 3888 1291 3947 
Q 1366 4006 1459 4006 
Q 1541 4006 1595 3957 
Q 1650 3909 1650 3828 
Q 1650 3809 1648 3798 
Q 1647 3788 1644 3775 
L 1388 2759 
L 2047 2759 
Q 2113 2759 2113 2675 
Q 2109 2659 2100 2621 
Q 2091 2584 2075 2559 
Q 2059 2534 2028 2534 
L 1331 2534 
L 872 684 
Q 825 503 825 372 
Q 825 97 1013 97 
Q 1294 97 1511 361 
Q 1728 625 1844 941 
Q 1869 978 1894 978 
L 1972 978 
Q 1997 978 2012 961 
Q 2028 944 2028 922 
Q 2028 909 2022 903 
Q 1881 516 1612 222 
Q 1344 -72 997 -72 
Q 744 -72 570 93 
Q 397 259 397 519 
z
" transform="scale(0.015625)"/>
     <path id="Cmr10-29" d="M 481 850 
Q 428 850 393 890 
Q 359 931 359 978 
Q 359 1031 393 1068 
Q 428 1106 481 1106 
L 4500 1106 
Q 4547 1106 4581 1068 
Q 4616 1031 4616 978 
Q 4616 931 4581 890 
Q 4547 850 4500 850 
L 481 850 
z
M 481 2094 
Q 428 2094 393 2131 
Q 359 2169 359 2222 
Q 359 2269 393 2309 
Q 428 2350 481 2350 
L 4500 2350 
Q 4547 2350 4581 2309 
Q 4616 2269 4616 2222 
Q 4616 2169 4581 2131 
Q 4547 2094 4500 2094 
L 481 2094 
z
" transform="scale(0.015625)"/>
     <path id="Cmsy10-11" d="M 653 1472 
Q 600 1472 565 1512 
Q 531 1553 531 1600 
Q 531 1647 565 1687 
Q 600 1728 653 1728 
L 4325 1728 
Q 4375 1728 4408 1687 
Q 4441 1647 4441 1600 
Q 4441 1553 4408 1512 
Q 4375 1472 4325 1472 
L 653 1472 
z
" transform="scale(0.015625)"/>
     <path id="Cmmi10-2b" d="M 997 97 
Q 997 141 1006 166 
L 1678 2363 
L 1100 2363 
Q 866 2363 662 2216 
Q 459 2069 325 1844 
Q 313 1819 288 1819 
L 213 1819 
Q 153 1819 153 1881 
Q 153 1894 166 1919 
Q 375 2275 614 2517 
Q 853 2759 1153 2759 
L 3116 2759 
Q 3184 2759 3231 2712 
Q 3278 2666 3278 2597 
Q 3278 2503 3211 2433 
Q 3144 2363 3047 2363 
L 1888 2363 
L 1459 153 
Q 1434 50 1365 -17 
Q 1297 -84 1191 -84 
Q 1109 -84 1053 -32 
Q 997 19 997 97 
z
" transform="scale(0.015625)"/>
     <path id="Cmr10-6a" d="M 197 0 
L 197 225 
Q 416 225 556 259 
Q 697 294 697 428 
L 697 3788 
Q 697 3959 645 4036 
Q 594 4113 497 4130 
Q 400 4147 197 4147 
L 197 4372 
L 1147 4441 
L 1147 428 
Q 1147 294 1287 259 
Q 1428 225 1644 225 
L 1644 0 
L 197 0 
z
" transform="scale(0.015625)"/>
     <path id="Cmr10-74" d="M 191 0 
L 191 225 
Q 409 225 550 259 
Q 691 294 691 428 
L 691 2175 
Q 691 2347 639 2423 
Q 588 2500 491 2517 
Q 394 2534 191 2534 
L 191 2759 
L 1119 2828 
L 1119 2203 
Q 1247 2478 1498 2653 
Q 1750 2828 2047 2828 
Q 2491 2828 2714 2615 
Q 2938 2403 2938 1966 
L 2938 428 
Q 2938 294 3078 259 
Q 3219 225 3438 225 
L 3438 0 
L 1972 0 
L 1972 225 
Q 2191 225 2331 259 
Q 2472 294 2472 428 
L 2472 1947 
Q 2472 2259 2381 2461 
Q 2291 2663 2009 2663 
Q 1638 2663 1398 2366 
Q 1159 2069 1159 1691 
L 1159 428 
Q 1159 294 1300 259 
Q 1441 225 1656 225 
L 1656 0 
L 191 0 
z
" transform="scale(0.015625)"/>
     <path id="Cmex10-44" d="M 2503 -7406 
Q 1713 -6744 1342 -5734 
Q 972 -4725 972 -3584 
Q 972 -2434 1342 -1423 
Q 1713 -413 2503 244 
Q 2503 256 2534 256 
L 2613 256 
Q 2631 256 2647 236 
Q 2663 216 2663 197 
Q 2663 172 2650 159 
Q 2303 -200 2067 -640 
Q 1831 -1081 1695 -1554 
Q 1559 -2028 1500 -2543 
Q 1441 -3059 1441 -3591 
Q 1441 -6072 2650 -7322 
Q 2663 -7334 2663 -7359 
Q 2663 -7378 2645 -7398 
Q 2628 -7419 2613 -7419 
L 2534 -7419 
Q 2503 -7419 2503 -7406 
z
" transform="scale(0.015625)"/>
     <path id="Cmmi10-7e" d="M 1409 -72 
L 897 4006 
Q 850 4147 416 4147 
Q 353 4147 353 4231 
Q 366 4300 384 4336 
Q 403 4372 459 4372 
L 2022 4372 
Q 2056 4372 2072 4347 
Q 2088 4322 2088 4288 
Q 2063 4147 2003 4147 
Q 1503 4147 1472 3975 
L 1894 628 
L 3866 3775 
Q 3922 3881 3922 3944 
Q 3922 4056 3820 4101 
Q 3719 4147 3584 4147 
Q 3519 4147 3519 4231 
Q 3531 4281 3540 4309 
Q 3550 4338 3569 4355 
Q 3588 4372 3628 4372 
L 4863 4372 
Q 4922 4372 4922 4288 
Q 4897 4147 4838 4147 
Q 4356 4147 4084 3725 
Q 4072 3713 4063 3713 
L 1703 -72 
Q 1656 -141 1581 -141 
L 1491 -141 
Q 1419 -141 1409 -72 
z
" transform="scale(0.015625)"/>
     <path id="Cmr10-28" d="M 1600 -141 
Q 816 -141 533 504 
Q 250 1150 250 2041 
Q 250 2597 351 3087 
Q 453 3578 754 3920 
Q 1056 4263 1600 4263 
Q 2022 4263 2290 4056 
Q 2559 3850 2700 3523 
Q 2841 3197 2892 2823 
Q 2944 2450 2944 2041 
Q 2944 1491 2842 1011 
Q 2741 531 2444 195 
Q 2147 -141 1600 -141 
z
M 1600 25 
Q 1956 25 2131 390 
Q 2306 756 2347 1200 
Q 2388 1644 2388 2144 
Q 2388 2625 2347 3031 
Q 2306 3438 2132 3767 
Q 1959 4097 1600 4097 
Q 1238 4097 1063 3765 
Q 888 3434 847 3029 
Q 806 2625 806 2144 
Q 806 1788 823 1472 
Q 841 1156 916 820 
Q 991 484 1158 254 
Q 1325 25 1600 25 
z
" transform="scale(0.015625)"/>
     <path id="Cmex10-69" d="M 319 -7419 
Q 263 -7419 263 -7359 
Q 263 -7334 275 -7322 
Q 734 -6844 1001 -6236 
Q 1269 -5628 1376 -4961 
Q 1484 -4294 1484 -3578 
Q 1484 -1091 275 159 
Q 263 172 263 197 
Q 263 256 319 256 
L 397 256 
Q 416 256 428 244 
Q 1216 -413 1584 -1423 
Q 1953 -2434 1953 -3584 
Q 1953 -4725 1586 -5734 
Q 1219 -6744 428 -7406 
Q 416 -7419 397 -7419 
L 319 -7419 
z
" transform="scale(0.015625)"/>
    </defs>
    <use xlink:href="#Cmmi10-30" transform="translate(0 0.264063)"/>
    <use xlink:href="#Cmr10-29" transform="translate(83.862121 0.264063)"/>
    <use xlink:href="#Cmsy10-11" transform="translate(229.325862 0.264063)"/>
    <use xlink:href="#Cmmi10-2b" transform="translate(343.678514 0.264063)"/>
    <use xlink:href="#Cmr10-6a" transform="translate(387.379686 0.264063)"/>
    <use xlink:href="#Cmr10-74" transform="translate(415.065232 0.264063)"/>
    <use xlink:href="#Cmex10-44" transform="translate(470.582811 79.725183) scale(1.063269)"/>
    <use xlink:href="#Cmmi10-7e" transform="translate(539.524766 36.18125) scale(0.7)"/>
    <use xlink:href="#Cmmi10-7e" transform="translate(525.524766 -31.929687) scale(0.7)"/>
    <use xlink:href="#Cmr10-28" transform="translate(566.335313 -42.429661) scale(0.49)"/>
    <use xlink:href="#Cmex10-69" transform="translate(601.089604 79.725183) scale(1.063269)"/>
    <path d="M 525.524766 22.139063 
L 525.524766 28.389063 
L 594.839604 28.389063 
L 594.839604 22.139063 
L 525.524766 22.139063 
z
"/>
   </g>
  </g>
 </g>
</svg>
